<?xml version="1.0" encoding="utf-8"?>
<!-- Generator: Adobe Illustrator 26.0.1, SVG Export Plug-In . SVG Version: 6.00 Build 0)  -->
<svg version="1.1" id="Layer_1" xmlns="http://www.w3.org/2000/svg" xmlns:xlink="http://www.w3.org/1999/xlink" x="0px" y="0px"
	 viewBox="0 0 48 48" style="enable-background:new 0 0 48 48;" xml:space="preserve">
<style type="text/css">
	.st0{opacity:0.4;}
	.st1{fill:#FFFFFF;}
</style>
<path class="st0" d="M42.5,16.2c-1-2.4-2.4-4.6-4.2-6.4s-3.9-3.2-6.3-4.2C29.5,4.5,26.8,4,24,4c-2.8,0-5.4,0.5-7.8,1.5
	c-2.4,1-4.6,2.5-6.4,4.2s-3.2,3.9-4.2,6.4c-1,2.4-1.5,5-1.5,7.8c0,2.8,0.5,5.5,1.5,7.9c1,2.4,2.5,4.5,4.2,6.3s3.9,3.2,6.4,4.2
	c2.4,1,5,1.5,7.8,1.5c2.8,0,5.5-0.5,7.9-1.5c2.4-1,4.5-2.4,6.3-4.2s3.2-3.9,4.2-6.3c1-2.4,1.5-5.1,1.5-7.9
	C44,21.2,43.5,18.6,42.5,16.2z"/>
<path class="st1" d="M29.4,25c0.3-0.3,0.5-0.6,0.5-1s-0.2-0.8-0.5-1l-6.6-6.5c-0.3-0.3-0.6-0.4-1-0.4c-0.4,0-0.8,0.1-1.1,0.5
	c-0.3,0.3-0.4,0.7-0.4,1c0,0.4,0.1,0.8,0.4,1l5.5,5.4l-5.5,5.5c-0.3,0.3-0.4,0.6-0.4,1c0,0.4,0.2,0.8,0.5,1.1c0.3,0.3,0.6,0.4,1,0.4
	c0.4,0,0.8-0.1,1-0.4L29.4,25z"/>
</svg>
