<?xml version="1.0" encoding="utf-8"?>
<!-- Generator: Adobe Illustrator 26.0.1, SVG Export Plug-In . SVG Version: 6.00 Build 0)  -->
<svg version="1.1" id="Layer_1" xmlns="http://www.w3.org/2000/svg" xmlns:xlink="http://www.w3.org/1999/xlink" x="0px" y="0px"
	 viewBox="0 0 120 24" style="enable-background:new 0 0 120 24;" xml:space="preserve">
<style type="text/css">
	.st0{fill:#404040;}
</style>
<g>
	<path class="st0" d="M11,7h3.4V5.5H5.6V7h3.5v1.6c0,2.7-1.7,5.8-4.1,7L6,17c1.9-0.9,3.3-2.9,4-5.1c0.7,2.1,2.1,3.9,3.9,4.7l1-1.5
		C12.6,14,11,11.1,11,8.6V7z M20.4,10.3h-2.5V3.9H16v16.3h1.9v-8.3h2.5V10.3z M26.8,5.4H25v2.9c0,2.8-1.1,5.7-3.4,7.1l1.1,1.4
		c1.6-1,2.6-2.7,3.2-4.7c0.6,1.8,1.5,3.4,3,4.3l1-1.4c-2.2-1.4-3.2-4.1-3.2-6.7V5.4z M30.6,9.6h-2.4v1.5h2.4v8.3h1.7V4.2h-1.7V9.6z
		 M33.9,3.9v16.3h1.8V3.9H33.9z M43.6,15.1c-1.3,0-2.3-0.9-2.3-2.3s1-2.3,2.3-2.3s2.3,0.9,2.3,2.3S44.9,15.1,43.6,15.1z M43.6,9
		c-2.4,0-4.1,1.6-4.1,3.8c0,2.2,1.7,3.8,4.1,3.8c2.4,0,4.1-1.6,4.1-3.8C47.7,10.6,46,9,43.6,9z M44.5,4.1h-1.9v2.3h-3.9v1.5h9.7V6.4
		h-3.9V4.1z M49.9,3.9v16.3h1.9V3.9H49.9z M58.4,9.2h7.7v2.7h-7.7V9.2z M63.2,16.6v-3.3H68V5h-1.8v2.7h-7.7V5h-1.8v8.4h4.8v3.3h-6.4
		v1.5h14.7v-1.5H63.2z M72.4,5.6v1.5h5.8c-0.3,3.7-2.3,6.6-6.6,8.7l1,1.5c5.6-2.7,7.5-6.8,7.5-11.6H72.4z M83.1,3.9v16.3h1.9V3.9
		H83.1z"/>
	<path class="st0" d="M114.3,14.3H97.8c-0.4,0-0.8-0.3-0.8-0.8s0.3-0.8,0.8-0.8h14.7l-1.6-1.7c-0.3-0.3-0.3-0.8,0-1.1
		c0.3-0.3,0.8-0.3,1.1,0l2.9,3c0.2,0.2,0.3,0.6,0.2,0.8C114.9,14.1,114.6,14.3,114.3,14.3z"/>
</g>
</svg>
