<?xml version="1.0" encoding="utf-8"?>
<!-- Generator: Adobe Illustrator 26.0.1, SVG Export Plug-In . SVG Version: 6.00 Build 0)  -->
<svg version="1.1" id="Layer_1" xmlns="http://www.w3.org/2000/svg" xmlns:xlink="http://www.w3.org/1999/xlink" x="0px" y="0px"
	 viewBox="0 0 48 48" style="enable-background:new 0 0 48 48;" xml:space="preserve">
<style type="text/css">
	.st0{fill:#202020;}
</style>
<path class="st0" d="M38,42.3h-9.9c-0.8,0-1.5-0.7-1.5-1.5v-9.4h-5.2v9.4c0,0.8-0.7,1.5-1.5,1.5H10c-0.8,0-1.5-0.7-1.5-1.5V23.6
	c0-0.4,0.2-0.8,0.5-1.1L22.9,9.2c0.6-0.6,1.5-0.6,2.1,0L39,22.5c0.3,0.3,0.5,0.7,0.5,1.1v17.1C39.5,41.6,38.8,42.3,38,42.3z
	 M29.6,39.3h6.9v-15L23.9,12.4L11.5,24.3v15h6.9v-9.4c0-0.8,0.7-1.5,1.5-1.5h8.2c0.8,0,1.5,0.7,1.5,1.5V39.3z"/>
</svg>
