<svg width="1921" height="448" viewBox="0 0 1921 448" fill="none" xmlns="http://www.w3.org/2000/svg">
<path d="M1039.46 283.868L1039.46 257.121L1288.68 257.121L1288.68 283.868L1039.46 283.868ZM1107.54 305.662L1107.54 362.27L1256.56 362.27L1256.56 388.735L1074.56 388.735L1074.56 305.662L1107.54 305.662ZM1164.28 238.865C1112.21 238.865 1075.69 217.637 1075.69 181.408C1075.69 146.311 1111.36 123.951 1164 123.951C1217.64 123.951 1253.02 146.594 1253.02 181.408C1253.02 217.354 1215.8 238.865 1164.28 238.865ZM1164 149.849C1130.46 149.849 1108.67 162.869 1108.67 181.691C1108.67 200.513 1130.46 212.684 1164 212.684C1197.26 212.684 1219.34 200.655 1219.34 181.691C1219.34 162.727 1197.26 149.849 1164 149.849Z" fill="#202020"/>
<path d="M485.838 217.496C474.233 220.185 457.392 221.317 436.023 220.892L436.023 151.406L478.903 151.406L478.903 162.586C474.516 162.586 453.713 162.444 449.467 162.444L449.467 209.571C461.072 209.854 475.932 208.58 484.706 206.599L485.838 217.496ZM516.548 249.338L516.548 191.456L504.377 191.456L504.377 244.526L491.499 244.526L491.499 142.066L504.377 142.066L504.377 180.276L516.548 180.276L516.548 140.226L529.568 140.226L529.568 249.338L516.548 249.338Z" fill="#202020"/>
<path d="M543.578 171.36L543.578 160.746L609.102 160.746L609.102 171.36L543.578 171.36ZM577.118 216.647C562.259 216.647 550.796 208.58 550.796 196.126C550.796 183.814 562.117 175.606 577.118 175.606C591.836 175.606 603.158 183.814 603.158 196.126C603.158 208.58 591.836 216.647 577.118 216.647ZM560.843 154.378L560.843 143.481L593.393 143.481L593.393 154.378L560.843 154.378ZM562.4 252.31L562.4 221.883L575.986 221.883L575.986 241.13L635.849 241.13L635.849 252.31L562.4 252.31ZM577.118 186.503C569.901 186.503 564.098 190.465 564.098 196.268C564.098 202.07 569.618 206.033 577.118 206.033C584.336 206.033 590.138 201.928 590.138 196.268C590.138 190.607 584.336 186.503 577.118 186.503ZM632.736 187.918L632.736 224.855L619.291 224.855L619.291 140.226L632.736 140.226L632.736 176.596L650.001 176.596L650.001 187.918L632.736 187.918Z" fill="#202020"/>
<path d="M703.354 207.306C699.108 216.364 691.891 222.166 681.985 222.166C665.427 222.166 656.228 205.891 656.228 185.229C656.228 164.992 665.285 148.717 681.985 148.717C691.75 148.717 698.826 154.378 703.071 163.152L717.365 163.152L717.365 142.207L730.243 142.207L730.243 244.668L717.506 244.668L717.506 207.448L703.354 207.448L703.354 207.306ZM681.985 160.322C673.918 160.322 668.965 170.511 668.965 185.371C668.965 200.089 673.918 210.278 681.985 210.278C690.051 210.278 695.004 200.089 695.004 185.371C695.004 170.511 690.193 160.322 681.985 160.322ZM706.751 195.843L717.365 195.843L717.365 174.615L706.751 174.615C707.317 178.012 707.741 181.691 707.741 185.229C707.741 189.05 707.317 192.588 706.751 195.843ZM739.725 249.338L739.725 140.226L752.745 140.226L752.745 249.338L739.725 249.338Z" fill="#202020"/>
<path d="M811.759 253.017L811.759 213.533L767.321 213.533L767.321 202.495L869.923 202.495L869.923 213.533L825.203 213.533L825.203 253.017L811.759 253.017ZM826.052 142.915L826.052 148.717C826.052 165.699 845.723 179.002 863.838 181.408L857.894 192.164C840.629 188.909 824.495 178.153 818.976 166.124C813.598 178.436 797.607 189.05 780.058 192.305L774.114 181.408C793.219 178.436 811.617 165.841 811.617 148.717L811.617 142.915L826.052 142.915Z" fill="#202020"/>
<path d="M878.839 235.044L878.839 224.006L903.18 224.006L903.18 187.777L916.625 187.777L916.625 224.006L930.069 224.006L930.069 187.777L943.372 187.777L943.372 224.006L981.441 224.006L981.441 235.044L878.839 235.044ZM969.412 164.85C969.412 181.408 967.855 197.966 965.025 210.561L951.863 208.722C954.552 198.249 955.826 183.531 955.826 171.926L955.826 161.171L891.576 161.171L891.576 150.132L969.27 150.132L969.27 164.85L969.412 164.85Z" fill="#202020"/>
<path d="M471.544 304.389C471.827 320.947 483.149 332.551 497.584 337.08L490.65 347.694C480.46 344.015 469.422 335.24 464.61 324.768C461.072 335.665 449.326 346.279 437.58 350.808L429.937 340.194C446.354 334.25 457.534 321.088 457.675 304.247L434.325 304.247L434.325 292.926L493.763 292.926L493.763 304.247L471.544 304.247L471.544 304.389ZM485.979 400.481C464.044 400.481 450.033 391.141 450.033 376.706C450.033 362.412 464.044 352.93 485.979 352.93C508.198 352.93 521.925 362.412 521.925 376.706C521.784 391.141 508.056 400.481 485.979 400.481ZM485.979 363.969C472.393 363.969 463.761 368.781 463.761 376.706C463.761 384.489 472.393 389.443 485.979 389.443C499.848 389.443 508.481 384.489 508.481 376.706C508.481 368.781 499.707 363.969 485.979 363.969ZM521.076 324.485L521.076 351.94L507.632 351.94L507.632 285.85L521.076 285.85L521.076 313.446L538.483 313.446L538.483 324.626L521.076 324.626L521.076 324.485Z" fill="#202020"/>
<path d="M714.817 353.496L714.817 370.903L759.538 370.903L759.538 381.942L656.936 381.942L656.936 370.903L701.514 370.903L701.514 353.496L671.371 353.496L671.371 316.984L731.8 316.984L731.8 302.974L671.088 302.974L671.088 291.935L745.244 291.935L745.244 327.881L684.815 327.881L684.815 342.599L748.074 342.599L748.074 353.638L714.817 353.638L714.817 353.496Z" fill="#202020"/>
<path d="M955.967 374.158C946.203 375.432 930.352 376.564 917.191 377.272C905.728 377.838 892.567 378.262 882.519 378.262L880.82 366.799C889.312 366.799 900.633 366.799 911.106 366.375L911.106 356.751C898.652 354.912 891.01 347.977 891.01 338.778C891.01 328.023 902.473 320.522 917.899 320.522C933.607 320.522 944.787 327.881 944.787 338.778C944.787 348.119 937.004 354.912 924.55 356.751L924.55 365.667C935.872 365.243 947.193 364.252 954.835 363.261L955.967 374.158ZM883.792 316.701L883.792 306.087L951.297 306.087L951.297 316.701L883.792 316.701ZM901.624 300.568L901.624 289.812L933.607 289.812L933.607 300.568L901.624 300.568ZM904.03 338.92C904.03 343.449 909.549 347.411 917.899 347.411C926.107 347.411 931.484 343.449 931.484 338.92C931.484 334.25 926.107 330.57 917.899 330.57C909.69 330.57 904.03 334.391 904.03 338.92ZM961.911 285.85L975.214 285.85L975.214 394.962L961.911 394.962L961.911 285.85Z" fill="#202020"/>
<path d="M1346.7 89.1371C1360.15 89.1371 1369.06 96.2131 1369.06 106.119C1369.06 115.035 1361.99 121.545 1350.95 122.96L1350.95 134.423L1376 134.423L1376 141.358L1317.27 141.358L1317.27 134.423L1342.32 134.423L1342.32 122.819C1331.28 121.404 1324.2 114.894 1324.2 106.119C1324.2 96.2131 1333.26 89.1371 1346.7 89.1371ZM1346.7 116.026C1354.77 116.026 1360.43 112.063 1360.43 106.119C1360.43 100.176 1354.91 96.2131 1346.7 96.2131C1338.64 96.2131 1332.98 100.176 1332.98 106.119C1332.98 112.205 1338.64 116.026 1346.7 116.026Z" fill="#202020"/>
<path d="M1404.02 97.2037C1404.44 106.402 1410.81 112.629 1418.88 115.035L1414.35 121.828C1408.97 119.705 1402.32 114.894 1399.63 108.808C1397.51 115.035 1390.72 120.838 1384.35 123.102L1379.68 116.309C1388.88 113.054 1394.82 106.261 1395.1 96.9206L1382.08 96.9206L1382.08 90.2692L1416.47 90.2692L1416.47 97.2037L1404.02 97.2037ZM1424.82 151.406L1424.82 133.999L1391.42 133.999L1391.42 127.064L1433.46 127.064L1433.46 151.406L1424.82 151.406ZM1424.82 123.809L1424.82 86.3066L1433.46 86.3067L1433.46 123.809L1424.82 123.809Z" fill="#202020"/>
<path d="M1457.66 107.11L1457.66 100.317L1495.3 100.317L1495.3 107.11L1457.66 107.11ZM1476.9 137.395C1467.99 137.395 1461.34 132.018 1461.34 123.668C1461.34 115.743 1467.99 110.082 1476.9 110.082C1485.54 110.224 1492.47 115.601 1492.47 123.668C1492.47 131.876 1485.68 137.395 1476.9 137.395ZM1467.28 96.0716L1467.28 89.1371L1486.53 89.1371L1486.53 96.0716L1467.28 96.0716ZM1476.9 117.017C1472.8 117.017 1469.83 119.705 1469.83 123.809C1469.83 127.772 1472.8 130.602 1476.9 130.602C1481.29 130.602 1484.12 127.772 1484.12 123.809C1484.12 119.564 1481.01 117.017 1476.9 117.017ZM1508.89 118.007L1508.89 148.717L1500.25 148.717L1500.25 86.1652L1508.89 86.1652L1508.89 110.931L1518.51 110.931L1518.51 118.007L1508.89 118.007Z" fill="#202020"/>
<path d="M1557.57 129.329C1548.94 131.452 1535.92 132.301 1522.05 132.301L1522.05 91.5429L1530.54 91.5429L1530.54 125.083C1539.6 125.083 1549.22 124.234 1556.72 122.677L1557.57 129.329ZM1570.59 115.884L1570.59 148.717L1561.96 148.717L1561.96 86.1652L1570.59 86.1652L1570.59 108.667L1580.35 108.667L1580.35 115.884L1570.59 115.884Z" fill="#202020"/>
<path d="M1621.54 116.167C1612.76 118.149 1598.33 118.998 1584.88 118.856L1584.88 89.5616L1593.52 89.5616L1593.52 111.356C1602.15 111.497 1612.76 110.79 1620.69 108.95L1621.54 116.167ZM1595.07 151.123L1595.07 125.649L1635.97 125.649L1635.97 151.123L1595.07 151.123ZM1627.2 132.584L1603.56 132.584L1603.56 144.188L1627.2 144.188L1627.2 132.584ZM1635.83 122.253L1627.2 122.253L1627.2 86.1652L1635.83 86.1652L1635.83 122.253Z" fill="#202020"/>
<path d="M1641.63 127.914C1648.14 120.555 1651.26 110.082 1651.4 99.4682L1644.75 99.4682L1644.75 92.3922L1659.46 92.3922C1659.75 110.648 1655.78 123.102 1648.42 132.301L1641.63 127.914ZM1656.07 132.018C1663.28 123.102 1666.4 111.497 1666.4 99.3266L1661.87 99.3266L1661.87 92.2506L1674.46 92.2506C1674.46 98.053 1674.32 103.289 1673.76 108.101L1678.99 108.101L1678.99 87.1559L1686.92 87.1559L1686.92 145.887L1678.99 145.887L1678.99 115.177L1672.62 115.177C1670.93 122.819 1667.95 129.612 1663.14 136.122L1656.07 132.018ZM1691.31 86.1653L1699.51 86.1653L1699.51 148.717L1691.31 148.717L1691.31 86.1653Z" fill="#202020"/>
<path d="M1768.01 124.093L1768.01 115.46L1752.58 115.46C1749.47 118.715 1744.94 120.555 1739.71 120.555C1730.08 120.555 1722.72 114.328 1722.72 105.27C1722.72 96.3547 1729.94 89.7033 1739.71 89.7033C1744.52 89.7033 1748.76 91.4015 1751.73 94.0904L1768.15 94.0904L1768.15 86.1653L1776.78 86.1653L1776.78 124.093L1768.01 124.093ZM1739.71 113.762C1744.66 113.762 1748.34 110.224 1748.34 105.27C1748.34 100.6 1744.8 96.9208 1739.71 96.9208C1734.61 96.9208 1731.21 100.6 1731.21 105.27C1731.07 110.224 1734.61 113.762 1739.71 113.762ZM1755.84 151.972C1743.24 151.972 1735.32 146.594 1735.32 138.245C1735.32 129.895 1743.24 124.376 1755.84 124.376C1768.43 124.376 1776.36 129.895 1776.36 138.245C1776.36 146.594 1768.43 151.972 1755.84 151.972ZM1755.84 131.31C1748.62 131.31 1743.95 133.999 1743.95 138.245C1743.95 142.349 1748.62 145.038 1755.84 145.038C1763.2 145.038 1767.58 142.349 1767.58 138.245C1767.73 133.999 1763.2 131.31 1755.84 131.31ZM1756.26 108.384L1768.01 108.384L1768.01 101.449L1755.98 101.449C1756.26 102.723 1756.4 103.997 1756.4 105.27C1756.55 106.261 1756.4 107.393 1756.26 108.384Z" fill="#202020"/>
<path d="M1823.91 121.262C1819.24 121.97 1810.75 122.819 1803.81 123.102C1797.02 123.385 1788.39 123.668 1783.44 123.668L1782.44 116.592C1786.12 116.592 1790.79 116.592 1795.18 116.451L1795.18 104.138L1803.67 104.138L1803.67 116.309C1810.32 116.168 1818.82 115.601 1823.06 114.894L1823.91 121.262ZM1819.81 89.5618C1819.81 98.4775 1819.52 106.12 1818.25 111.497L1809.9 110.365C1810.75 106.827 1811.31 100.6 1811.31 96.4962L1786.83 96.4962L1786.83 89.5618L1819.81 89.5618ZM1814.85 152.255C1802.12 152.255 1794.33 147.16 1794.33 139.235C1794.33 131.452 1802.12 126.074 1814.85 126.074C1827.59 126.074 1835.37 131.31 1835.37 139.235C1835.37 147.019 1827.45 152.255 1814.85 152.255ZM1814.85 133.291C1807.49 133.291 1803.11 135.839 1803.11 139.235C1803.11 142.632 1807.49 145.179 1814.85 145.179C1822.21 145.179 1826.6 142.632 1826.6 139.235C1826.6 135.839 1822.35 133.291 1814.85 133.291ZM1835.51 110.365L1835.51 125.932L1827.02 125.932L1827.02 86.1653L1835.51 86.1653L1835.51 103.148L1844.29 103.148L1844.29 110.224L1835.51 110.224L1835.51 110.365Z" fill="#202020"/>
<path d="M1845.56 120.979L1845.56 114.045L1904.29 114.045L1904.29 120.979L1845.56 120.979ZM1853.63 151.83L1853.63 134.99L1887.45 134.99L1887.45 131.31L1853.77 131.31L1853.77 124.517L1895.94 124.517L1895.94 141.216L1862.26 141.216L1862.26 144.754L1898.07 144.754L1898.07 151.689L1853.63 151.689L1853.63 151.83ZM1875.14 111.497C1862.54 111.497 1854.05 106.969 1854.05 98.902C1854.05 91.2599 1862.4 86.4482 1875.14 86.4482C1888.02 86.4483 1896.23 91.2599 1896.23 98.902C1896.23 106.827 1887.59 111.497 1875.14 111.497ZM1875.14 93.0997C1867.5 93.0997 1862.83 95.647 1862.83 98.902C1862.83 102.298 1867.5 104.846 1875.14 104.846C1882.78 104.846 1887.45 102.298 1887.45 98.902C1887.31 95.6471 1882.78 93.0997 1875.14 93.0997Z" fill="#202020"/>
<path d="M1911.51 128.338L1910.38 90.6938L1920 90.6938L1919.01 128.338L1911.51 128.338ZM1910.8 135.131L1919.72 135.131L1919.72 143.764L1910.8 143.764L1910.8 135.131Z" fill="#202020"/>
<path d="M1302.83 246.932L1302.83 225.845L1406.85 225.845L1406.85 246.932L1302.83 246.932ZM1354.91 343.59C1328.73 343.59 1309.48 325.051 1309.48 300.143C1309.48 273.679 1328.59 256.414 1354.91 256.414C1381.38 256.414 1400.34 273.962 1400.34 300.143C1400.34 325.759 1381.8 343.59 1354.91 343.59ZM1329.16 211.693L1329.16 190.607L1382.65 190.607L1382.65 211.693L1329.16 211.693ZM1354.91 277.217C1341.75 277.217 1333.12 286.558 1333.12 300.143C1333.12 313.446 1341.75 322.787 1354.91 322.787C1367.79 322.787 1376.85 313.163 1376.85 300.143C1376.99 286.699 1367.79 277.217 1354.91 277.217ZM1425.81 378.404L1425.81 318.966L1403.59 318.966L1403.59 298.162L1425.81 298.162L1425.81 274.953L1402.89 274.953L1402.89 253.866L1425.81 253.866L1425.81 180.842L1450.15 180.842L1450.15 378.262L1425.81 378.262L1425.81 378.404ZM1466.71 177.304L1491.76 177.304L1491.76 387.744L1466.71 387.744L1466.71 177.304Z" fill="#202020"/>
<path d="M1519.92 360.006L1519.92 338.778L1566.91 338.778L1566.91 269.151L1592.81 269.151L1592.81 338.778L1618.71 338.778L1618.71 269.151L1644.46 269.151L1644.46 338.778L1717.91 338.778L1717.91 360.006L1519.92 360.006ZM1694.28 224.713C1694.28 256.555 1691.31 288.539 1685.79 312.88L1660.6 309.342C1665.69 289.246 1668.38 260.659 1668.38 238.441L1668.38 217.637L1544.69 217.637L1544.69 196.409L1694.42 196.409L1694.42 224.713L1694.28 224.713Z" fill="#202020"/>
<path d="M1880.09 347.553C1861.13 349.959 1830.7 352.223 1805.51 353.638C1783.29 354.77 1758.1 355.478 1738.57 355.478L1735.32 333.542C1751.73 333.542 1773.39 333.542 1793.48 332.835L1793.48 314.295C1769.57 310.757 1754.71 297.455 1754.71 279.623C1754.71 258.82 1776.92 244.526 1806.64 244.526C1837.07 244.526 1858.58 258.82 1858.58 279.906C1858.58 297.879 1843.58 311.041 1819.52 314.579L1819.52 331.702C1841.32 330.712 1863.25 328.872 1877.97 327.032L1880.09 347.553ZM1740.84 236.884L1740.84 216.364L1870.89 216.364L1870.89 236.884L1740.84 236.884ZM1775.23 205.891L1775.23 185.088L1836.93 185.088L1836.93 205.891L1775.23 205.891ZM1779.9 279.765C1779.9 288.397 1790.65 296.181 1806.5 296.181C1822.35 296.181 1832.68 288.397 1832.68 279.765C1832.68 270.849 1822.35 263.631 1806.5 263.631C1790.65 263.631 1779.9 270.849 1779.9 279.765ZM1891.27 177.304L1917.03 177.304L1917.03 387.603L1891.27 387.603L1891.27 177.304Z" fill="#202020"/>
<path d="M250.349 89.5975L31.1343 89.5974L31.1342 361.033L250.349 361.033L250.349 89.5975Z" fill="white"/>
<path d="M11.18 384.525C11.18 384.525 -5.95407e-05 384.242 -5.80313e-05 375.609C-5.65219e-05 366.977 -1.36721e-06 51.5285 -1.36721e-06 51.5285C-1.36721e-06 51.5285 3.11345 42.3297 11.1801 43.8864C19.3883 45.4431 159.352 69.9261 159.352 69.9261L159.352 89.3144L125.104 97.5225L125.104 167.575L54.7683 167.575L54.7682 197.436L125.104 197.436L125.104 361.457L11.18 384.525Z" fill="#2398D5"/>
<path d="M159.352 89.4558L273.841 61.5764C273.841 61.5764 285.163 58.746 285.163 69.2185C285.163 79.691 284.88 440.567 284.88 440.567C284.88 440.567 282.616 449.483 274.973 447.784C267.331 445.945 124.962 409.149 124.962 409.149L125.245 361.599L160.059 354.947L159.635 197.719L230.678 197.719L230.678 167.575L159.635 167.575L159.635 89.4558L159.352 89.4558Z" fill="#62B348"/>
</svg>
