<?xml version="1.0" encoding="utf-8"?>
<!-- Generator: Adobe Illustrator 26.0.1, SVG Export Plug-In . SVG Version: 6.00 Build 0)  -->
<svg version="1.1" id="Layer_1" xmlns="http://www.w3.org/2000/svg" xmlns:xlink="http://www.w3.org/1999/xlink" x="0px" y="0px"
	 viewBox="0 0 200 64" style="enable-background:new 0 0 200 64;" xml:space="preserve">
<style type="text/css">
	.st0{fill:#FFFFFF;}
</style>
<g>
	<g>
		<path class="st0" d="M40.7,29.8H35v-5.2h5.7V29.8z M42.5,23.1h-9.3v8.1h9.3V23.1z M37.1,38.2h11v-5H35.2v1.5h11.1v2.1h-11V42h13.6
			v-1.5H37.1V38.2z M48.1,26.3V22h-1.9v10.3h1.9v-4.4h3v-1.5H48.1z M71,28.5c-2.6-0.9-3.9-2.9-3.9-4.9v-1.3h-1.8v1.3
			c0,1.6-1,3.5-3,4.6c-1.9-1.1-3-3.1-3-4.6v-1.3h-1.9v1.3c0,1.7-1.3,3.9-3.8,4.9l0.9,1.4c1.9-0.7,3.2-2.2,3.8-3.7
			c0.6,1.7,1.9,3.2,3.9,4c2-0.8,3.3-2.3,3.9-3.9c0.6,1.6,1.9,2.9,3.9,3.7L71,28.5z M57.2,36.6h10.2v3.9H57.2V36.6z M55.4,42h13.9
			v-6.8H55.4V42z M53.1,31.5v1.5h18.4v-1.5H53.1z M76.8,25.4h7.4v-1.5H75v13.4h1.6c3.8,0,6.3-0.1,9.2-0.7l-0.2-1.5
			c-2.7,0.5-5.1,0.7-8.7,0.7V25.4z M88.8,21.9v7.4H83v1.5h5.8v11.5h1.9V21.9H88.8z M98.8,28.5h10.4v3.7H98.8V28.5z M104.9,38.1v-4.4
			h6.1V23.4h-1.8V27H98.8v-3.6H97v10.4h6.1v4.4h-8.2v1.5h18.4v-1.5H104.9z M116.8,24.1v1.5h7.6c-0.4,4.8-3.1,8.7-8.6,11.3l1,1.5
			c6.7-3.3,9.4-8.5,9.4-14.3H116.8z M130.4,21.9v20.3h1.9V21.9H130.4z"/>
		<path class="st0" d="M159.7,24.5l6.9,6.9c0.1,0.1,0.2,0.2,0.2,0.3c0,0.1,0.1,0.2,0.1,0.4s0,0.3-0.1,0.4c0,0.1-0.1,0.2-0.2,0.3
			l-6.9,6.9c-0.2,0.2-0.5,0.3-0.7,0.3c-0.3,0-0.5-0.1-0.7-0.3c-0.2-0.2-0.3-0.5-0.3-0.8s0.1-0.6,0.3-0.8l6.1-6.1l-6.1-6.1
			c-0.2-0.2-0.3-0.4-0.3-0.7c0-0.3,0.1-0.5,0.3-0.7c0.2-0.2,0.5-0.3,0.8-0.3S159.5,24.3,159.7,24.5z"/>
	</g>
	<path class="st0" d="M167,6.3c14.2,0,25.8,11.6,25.8,25.8c0,14.2-11.6,25.8-25.8,25.8H33c-14.2,0-25.8-11.6-25.8-25.8
		C7.2,17.9,18.8,6.3,33,6.3H167 M167,4.1H33c-15.5,0-28,12.5-28,28v0c0,15.5,12.5,28,28,28h134c15.5,0,28-12.5,28-28v0
		C195,16.7,182.5,4.1,167,4.1L167,4.1z"/>
</g>
</svg>
