<?xml version="1.0" encoding="utf-8"?>
<!-- Generator: Adobe Illustrator 26.0.1, SVG Export Plug-In . SVG Version: 6.00 Build 0)  -->
<svg version="1.1" id="Layer_1" xmlns="http://www.w3.org/2000/svg" xmlns:xlink="http://www.w3.org/1999/xlink" x="0px" y="0px"
	 viewBox="0 0 86 24" style="enable-background:new 0 0 86 24;" xml:space="preserve">
<style type="text/css">
	.st0{fill:#202020;}
</style>
<path class="st0" d="M80.3,14.3H63.8c-0.4,0-0.8-0.3-0.8-0.8s0.3-0.8,0.8-0.8h14.7L76.8,11c-0.3-0.3-0.3-0.8,0-1.1
	c0.3-0.3,0.8-0.3,1.1,0l2.9,3c0.2,0.2,0.3,0.6,0.2,0.8C80.9,14.1,80.6,14.3,80.3,14.3z"/>
<path class="st0" d="M7.1,6.8h5.5V5.3H5.2v10.8h1.3c3,0,5-0.1,7.3-0.5l-0.2-1.5c-2.1,0.4-3.9,0.5-6.5,0.5V6.8z M16.1,3.8v5.8h-4.4
	v1.5h4.4v9h1.9V3.8H16.1z M24.5,9.1h7.7v2.7h-7.7V9.1z M29.2,16.6v-3.3H34V4.9h-1.8v2.7h-7.7V4.9h-1.8v8.4h4.8v3.3H21v1.5h14.7v-1.5
	H29.2z M38.4,5.5v1.5h5.8c-0.3,3.7-2.3,6.6-6.6,8.7l1,1.5c5.6-2.7,7.5-6.8,7.5-11.6H38.4z M49.1,3.8v16.3h1.9V3.8H49.1z"/>
</svg>
