<svg id="Layer_1" data-name="Layer 1" xmlns="http://www.w3.org/2000/svg" viewBox="0 0 100 100"><defs><style>.cls-1{fill:#434d68;stroke:#303030;}.cls-1,.cls-2,.cls-3{stroke-miterlimit:10;stroke-width:3px;}.cls-2{fill:#f7f7f7;}.cls-2,.cls-3{stroke:#404040;}.cls-3{fill:#f6a459;}</style></defs><path class="cls-1" d="M30.64,68.78a3.45,3.45,0,0,0-2.86,1.52l-10.17,15a1.48,1.48,0,0,0,1.31,2.16H81.08a1.48,1.48,0,0,0,1.31-2.16l-10.17-15a3.45,3.45,0,0,0-2.86-1.52Z"/><path class="cls-2" d="M73.46,40.16c0,14.89-16.44,30.69-21.8,35.44a2.54,2.54,0,0,1-3.35,0C42.94,71,26.54,55.56,26.54,40.16a23.46,23.46,0,0,1,46.92,0Z"/><circle class="cls-3" cx="50" cy="41.57" r="6.93"/></svg>