<svg id="Layer_1" data-name="Layer 1" xmlns="http://www.w3.org/2000/svg" viewBox="0 0 100 100"><defs><style>.cls-1{fill:#f7f7f7;}.cls-1,.cls-2,.cls-4{stroke:#404040;}.cls-1,.cls-2,.cls-3,.cls-4{stroke-miterlimit:10;stroke-width:3px;}.cls-2{fill:#f6a459;}.cls-3{fill:#434d68;stroke:#303030;}.cls-4{fill:#75bdef;}</style></defs><path class="cls-1" d="M74,92.35H25.91a2.86,2.86,0,0,1-2.86-2.87V64.9L50.8,41.17,76.86,64.9V89.48A2.86,2.86,0,0,1,74,92.35Z"/><path class="cls-2" d="M40.73,92.35V77.79a9.17,9.17,0,0,1,9.17-9.17h0a9.18,9.18,0,0,1,9.17,9.17V92.35Z"/><path class="cls-2" d="M57.59,18.86H53.52V15.43a3.59,3.59,0,0,0-7.18,0v3.43H42.26a3.71,3.71,0,0,0,0,7.41h4.08v9.91a3.59,3.59,0,0,0,7.18,0V26.27h4.07a3.71,3.71,0,1,0,0-7.41Z"/><path class="cls-3" d="M80,70.62a4.31,4.31,0,0,1-3-1.2L50,43.51l-27,25.91a4.32,4.32,0,0,1-6-6.24L47,34.4a4.34,4.34,0,0,1,6,0L83,63.18a4.32,4.32,0,0,1-3,7.44Z"/><rect class="cls-4" x="45.93" y="54.65" width="7.93" height="7.93" rx="1.23"/></svg>